# xmcd CD database file
#
# Track frame offsets:
#	150
#	15282
#	31868
#	47881
#	67041
#	85177
#	99404
#	115406
#	130887
#
# Disc length: 1986 seconds
#
# Revision: 0
# Processed by: cddbd v1.4PL0 Copyright (c) Steve Scherf et al.
# Submitted via: CDex 1.40Beta9
#
DISCID=6d07c009
DTITLE=Natasha Crestani - A Girl With Spirit
DYEAR=2003
DGENRE=Country
TTITLE0=Million Dollar You
TTITLE1=What A Woman Needs
TTITLE2=Look My Way cowboy
TTITLE3=We Made It
TTITLE4=Super Girl
TTITLE5=Nattasha's Big Dream
TTITLE6=How Could I Ask For More
TTITLE7=Shut Up and Kiss Me
TTITLE8=Without Letting Go
EXTD=YEAR: 2003 ID3G: 2
EXTT0=
EXTT1=
EXTT2=
EXTT3=
EXTT4=
EXTT5=
EXTT6=
EXTT7=
EXTT8=
PLAYORDER=
